# This file uses centimeters as units for non-parametric coordinates.

mtllib CP3ShieldMesh.mtl
g default
v -14.406601 3.263855 0.422400
v -12.137100 1.074249 1.062801
v -12.137100 1.074249 0.422400
v -14.406601 3.263855 1.062801
v -12.137100 -6.112442 0.422400
v -12.137100 -6.112442 1.062801
v -14.406601 -6.112442 1.062801
v -14.406601 6.086960 8.674400
v -14.954002 3.263855 8.222000
v -14.954002 6.086960 8.674400
v -14.406601 3.263855 8.222000
v -14.840202 6.086960 16.457102
v -14.954002 6.086960 16.035200
v -14.954002 3.263855 16.035200
v -14.840202 3.263855 16.457102
v -14.954002 -6.112442 16.035200
v -14.840202 -6.112442 16.457102
v 0.684502 6.086960 16.424601
v 0.310204 6.086960 16.584101
v 0.310204 3.263855 16.584101
v 0.684502 3.263855 16.424601
v 0.310204 -6.112442 16.584101
v 0.684502 -6.112442 16.424601
v -14.954002 -6.112442 8.222000
v -14.954002 3.263855 1.062801
v -14.954002 -6.112442 1.062801
v -14.954002 3.263855 0.422400
v -14.954002 -6.112442 0.422400
v 0.861504 -6.112442 2.122900
v 0.310204 -6.112442 2.122900
v 0.310204 3.263855 2.122900
v 0.861504 3.263855 2.122900
v 0.310204 6.086960 2.122900
v 0.861504 6.086960 2.122900
v 0.310204 -6.112442 16.035200
v 0.861504 -6.112442 16.035200
v 0.310204 3.263855 16.035200
v 0.310204 6.086960 16.035200
v -14.406601 -6.112442 16.584101
v -14.406601 -6.112442 16.035200
v -14.406601 -6.112442 8.222000
v -14.406601 -6.112442 0.422400
v -14.406601 3.263855 16.035200
v -14.406601 6.086960 16.035200
v -14.406601 6.086960 16.584101
v 0.861504 6.086960 16.035200
v -14.406601 3.263855 16.584101
v 0.861504 3.263855 16.035200
v -0.362198 -6.012451 0.000000
v -0.362198 6.012451 1.337200
v -0.362198 6.012451 0.000000
v -0.362198 -6.012451 1.337200
v 0.362198 -6.012451 1.337200
v 0.362198 -6.012451 0.000000
v 0.362198 6.012451 0.000000
v 0.362198 6.012451 1.337200
v 0.362198 6.012451 2.938400
v -0.362198 6.012451 2.938400
v -0.362198 -6.012451 2.938400
v 0.362198 -6.012451 2.938400
vt 0.502246 0.447727
vt 0.501559 0.514005
vt 0.495230 0.513715
vt 0.495958 0.447464
vt 0.981488 0.371532
vt 0.959189 0.391368
vt 0.959149 0.307235
vt 0.981457 0.307046
vt 0.605637 0.535277
vt 0.611868 0.561106
vt 0.606607 0.562165
vt 0.600373 0.536386
vt 0.498338 0.519047
vt 0.524506 0.530083
vt 0.524845 0.535639
vt 0.687248 0.558526
vt 0.683363 0.558746
vt 0.682420 0.534132
vt 0.686902 0.534214
vt 0.683077 0.451603
vt 0.687134 0.451720
vt 0.841377 0.557802
vt 0.837565 0.558808
vt 0.835952 0.533140
vt 0.839961 0.533024
vt 0.836563 0.449870
vt 0.840403 0.450695
vt 0.605964 0.449282
vt 0.534395 0.532991
vt 0.536058 0.448593
vt 0.529466 0.529737
vt 0.529793 0.448519
vt 0.977852 0.444620
vt 0.983294 0.444424
vt 0.989059 0.531093
vt 0.983636 0.531212
vt 0.988514 0.556989
vt 0.983062 0.556971
vt 0.842905 0.446020
vt 0.844498 0.450763
vt 0.977191 0.439681
vt 0.530560 0.310860
vt 0.667314 0.309703
vt 0.667354 0.393836
vt 0.530601 0.394993
vt 0.667366 0.419168
vt 0.530613 0.420325
vt 0.836506 0.444931
vt 0.691199 0.450539
vt 0.691143 0.445600
vt 0.684673 0.446949
vt 0.606409 0.444341
vt 0.536216 0.443653
vt 0.524538 0.442688
vt 0.524283 0.448433
vt 0.502495 0.441955
vt 0.884382 0.417332
vt 0.812027 0.417944
vt 0.812015 0.392613
vt 0.888816 0.391963
vt 0.811975 0.308480
vt 0.888776 0.307830
vt 0.612489 0.566028
vt 0.684917 0.563459
vt 0.691267 0.559739
vt 0.691351 0.564678
vt 0.837646 0.563746
vt 0.605520 0.540197
vt 0.534286 0.537919
vt 0.982850 0.561968
vt 0.844177 0.562490
vt 0.845325 0.557685
vt 0.691492 0.534328
vt 0.844209 0.532895
vt 0.377624 0.388375
vt 0.364477 0.388375
vt 0.364477 0.280496
vt 0.377624 0.280496
vt 0.416231 0.280496
vt 0.429377 0.280496
vt 0.429377 0.388375
vt 0.416231 0.388375
vt 0.400488 0.388375
vt 0.393366 0.388375
vt 0.393366 0.280496
vt 0.400488 0.280496
vt 0.429377 0.394873
vt 0.416231 0.394873
vt 0.400488 0.394873
vt 0.416231 0.273998
vt 0.429377 0.273998
vt 0.400488 0.273998
vn 0.999854 -0.012095 -0.012095
vn 0.999854 -0.012095 -0.012095
vn 0.999854 -0.012095 -0.012095
vn 0.999854 -0.012095 -0.012095
vn -0.012095 -0.012095 0.999854
vn -0.012095 -0.012095 0.999854
vn -0.012095 -0.012095 0.999854
vn -0.012095 -0.012095 0.999854
vn -0.011969 0.144622 -0.989415
vn -0.011969 0.144622 -0.989415
vn -0.011969 0.144622 -0.989415
vn -0.011969 0.144622 -0.989415
vn 0.694937 0.718970 -0.012016
vn 0.694937 0.718970 -0.012016
vn 0.694937 0.718970 -0.012016
vn 0.694937 0.718970 -0.012016
vn -0.968945 -0.011999 0.246986
vn -0.968945 -0.011999 0.246986
vn -0.968945 -0.011999 0.246986
vn -0.968945 -0.011999 0.246986
vn -0.968945 -0.011999 0.246986
vn -0.968945 -0.011999 0.246986
vn -0.968945 -0.011999 0.246986
vn -0.968945 -0.011999 0.246986
vn 0.390728 -0.012084 0.920427
vn 0.390728 -0.012084 0.920427
vn 0.390728 -0.012084 0.920427
vn 0.390728 -0.012084 0.920427
vn 0.390728 -0.012084 0.920427
vn 0.390728 -0.012084 0.920427
vn 0.390728 -0.012084 0.920427
vn 0.390728 -0.012084 0.920427
vn -0.999856 -0.011998 -0.011998
vn -0.999856 -0.011998 -0.011998
vn -0.999856 -0.011998 -0.011998
vn -0.999856 -0.011998 -0.011998
vn -0.999856 -0.011998 -0.011998
vn -0.999856 -0.011998 -0.011998
vn -0.999856 -0.011998 -0.011998
vn -0.999856 -0.011998 -0.011998
vn -0.999856 -0.011998 -0.011998
vn -0.999856 -0.011998 -0.011998
vn -0.999856 -0.011998 -0.011998
vn -0.999856 -0.011998 -0.011998
vn -0.999856 -0.011998 -0.011998
vn -0.999856 -0.011998 -0.011998
vn -0.999856 -0.011998 -0.011998
vn -0.999856 -0.011998 -0.011998
vn -0.011998 -0.011998 -0.999856
vn -0.011998 -0.011998 -0.999856
vn -0.011998 -0.011998 -0.999856
vn -0.011998 -0.011998 -0.999856
vn -0.011998 -0.011998 -0.999856
vn -0.011998 -0.011998 -0.999856
vn -0.011998 -0.011998 -0.999856
vn -0.011998 -0.011998 -0.999856
vn -0.011998 -0.999856 -0.011998
vn -0.011998 -0.999856 -0.011998
vn -0.011998 -0.999856 -0.011998
vn -0.011998 -0.999856 -0.011998
vn -0.011998 -0.999856 -0.011998
vn -0.011998 -0.999856 -0.011998
vn -0.011998 -0.999856 -0.011998
vn -0.011998 -0.999856 -0.011998
vn -0.999856 -0.011998 -0.011998
vn -0.999856 -0.011998 -0.011998
vn -0.999856 -0.011998 -0.011998
vn -0.999856 -0.011998 -0.011998
vn -0.999856 -0.011998 -0.011998
vn -0.999856 -0.011998 -0.011998
vn -0.999856 -0.011998 -0.011998
vn -0.999856 -0.011998 -0.011998
vn -0.011998 -0.999856 -0.011998
vn -0.011998 -0.999856 -0.011998
vn -0.011998 -0.999856 -0.011998
vn -0.011998 -0.999856 -0.011998
vn -0.011998 -0.999856 -0.011998
vn -0.011998 -0.999856 -0.011998
vn -0.011998 -0.999856 -0.011998
vn -0.011998 -0.999856 -0.011998
vn -0.011998 -0.999856 -0.011998
vn -0.011998 -0.999856 -0.011998
vn -0.011998 -0.999856 -0.011998
vn -0.011998 -0.999856 -0.011998
vn -0.011998 -0.999856 -0.011998
vn -0.011998 -0.999856 -0.011998
vn -0.011998 -0.999856 -0.011998
vn -0.011998 -0.999856 -0.011998
vn -0.011998 -0.999856 -0.011998
vn -0.011998 -0.999856 -0.011998
vn -0.011998 -0.999856 -0.011998
vn -0.011998 -0.999856 -0.011998
vn -0.011998 -0.999856 -0.011998
vn -0.011998 -0.999856 -0.011998
vn -0.011998 -0.999856 -0.011998
vn -0.011998 -0.999856 -0.011998
vn -0.011998 -0.999856 -0.011998
vn -0.011998 -0.999856 -0.011998
vn 0.999854 -0.012095 -0.012095
vn 0.999854 -0.012095 -0.012095
vn 0.999854 -0.012095 -0.012095
vn 0.999854 -0.012095 -0.012095
vn 0.999854 -0.012095 -0.012095
vn 0.999854 -0.012095 -0.012095
vn 0.999854 -0.012095 -0.012095
vn 0.999854 -0.012095 -0.012095
vn 0.999854 -0.012095 -0.012095
vn 0.999854 -0.012095 -0.012095
vn 0.999854 -0.012095 -0.012095
vn 0.999854 -0.012095 -0.012095
vn 0.999854 -0.012095 -0.012095
vn 0.999854 -0.012095 -0.012095
vn -0.012095 0.999854 -0.012095
vn -0.012095 0.999854 -0.012095
vn -0.012095 0.999854 -0.012095
vn -0.012095 0.999854 -0.012095
vn -0.012095 0.999854 -0.012095
vn -0.012095 0.999854 -0.012095
vn -0.012095 0.999854 -0.012095
vn -0.012095 0.999854 -0.012095
vn -0.012095 0.999854 -0.012095
vn -0.012095 0.999854 -0.012095
vn -0.012095 0.999854 -0.012095
vn -0.012095 0.999854 -0.012095
vn -0.012095 0.999854 -0.012095
vn -0.012095 0.999854 -0.012095
vn -0.012095 0.999854 -0.012095
vn -0.012095 0.999854 -0.012095
vn -0.012095 0.999854 -0.012095
vn -0.012095 0.999854 -0.012095
vn -0.012095 0.999854 -0.012095
vn -0.012095 0.999854 -0.012095
vn -0.012095 0.999854 -0.012095
vn -0.012095 0.999854 -0.012095
vn -0.012095 0.999854 -0.012095
vn -0.012095 0.999854 -0.012095
vn -0.012095 0.999854 -0.012095
vn -0.012095 0.999854 -0.012095
vn -0.012095 0.999854 -0.012095
vn -0.012095 0.999854 -0.012095
vn -0.011998 -0.011998 -0.999856
vn -0.011998 -0.011998 -0.999856
vn -0.011998 -0.011998 -0.999856
vn -0.011998 -0.011998 -0.999856
vn -0.011998 -0.011998 -0.999856
vn -0.011998 -0.011998 -0.999856
vn -0.011998 -0.011998 -0.999856
vn -0.011998 -0.011998 -0.999856
vn -0.011998 -0.011998 -0.999856
vn -0.011998 -0.011998 -0.999856
vn -0.011998 -0.011998 -0.999856
vn -0.011998 -0.011998 -0.999856
vn -0.011998 -0.011998 -0.999856
vn -0.011998 -0.011998 -0.999856
vn -0.011998 -0.011998 -0.999856
vn -0.011998 -0.011998 -0.999856
vn -0.011998 -0.011998 -0.999856
vn -0.011998 -0.011998 -0.999856
vn -0.012095 -0.012095 0.999854
vn -0.012095 -0.012095 0.999854
vn -0.020156 -0.012093 0.999724
vn -0.020156 -0.012093 0.999724
vn -0.012095 -0.012095 0.999854
vn -0.012095 -0.012095 0.999854
vn -0.020156 -0.012093 0.999724
vn -0.020156 -0.012093 0.999724
vn -0.020156 -0.012093 0.999724
vn -0.020156 -0.012093 0.999724
vn -0.294769 -0.012031 0.955493
vn -0.294769 -0.012031 0.955493
vn -0.020156 -0.012093 0.999724
vn -0.020156 -0.012093 0.999724
vn -0.294769 -0.012031 0.955493
vn -0.294769 -0.012031 0.955493
vn 0.999854 -0.012095 0.012095
vn 0.910232 -0.012056 0.413924
vn 0.910232 -0.012056 0.413924
vn 0.999854 -0.012095 0.012095
vn 0.999854 -0.012095 0.012095
vn 0.910232 -0.012056 0.413924
vn 0.910232 -0.012056 0.413924
vn 0.999854 -0.012095 0.012095
vn 0.999854 -0.012095 -0.012095
vn 0.999854 -0.012095 0.012095
vn 0.999854 -0.012095 0.012095
vn 0.999854 -0.012095 0.012095
vn 0.999854 -0.012095 0.012095
vn 0.999854 -0.012095 -0.012095
vn 0.999854 -0.012095 -0.012095
vn 0.999854 -0.012095 -0.012095
vn 0.999854 -0.012095 0.012095
vn 0.999854 -0.012095 -0.012095
vn -1.000000 0.000000 0.000000
vn -1.000000 0.000000 0.000000
vn -0.999856 -0.011998 -0.011998
vn -0.999856 -0.011998 -0.011998
vn 0.999854 -0.012095 -0.012095
vn 0.999854 -0.012095 -0.012095
vn 0.999854 -0.012095 -0.012095
vn 0.999854 -0.012095 -0.012095
vn -0.012095 -0.012095 0.999854
vn -0.012095 -0.012095 0.999854
vn -0.012095 -0.012095 0.999854
vn -0.012095 -0.012095 0.999854
vn -0.012095 0.999854 -0.012095
vn -0.012095 0.999854 -0.012095
vn -0.012095 0.999854 -0.012095
vn -0.012095 0.999854 -0.012095
vn -0.012095 0.999854 -0.012095
vn -0.012095 0.999854 -0.012095
vn -0.012095 0.999854 -0.012095
vn -0.012095 0.999854 -0.012095
vn 0.999854 -0.012095 -0.012095
vn 0.999854 -0.012095 -0.012095
vn 0.999854 -0.012095 -0.012095
vn 0.999854 -0.012095 -0.012095
vn -0.011998 -0.999856 -0.011998
vn -0.011998 -0.999856 -0.011998
vn -0.011998 -0.999856 -0.011998
vn -0.011998 -0.999856 -0.011998
vn -0.011998 -0.999856 -0.011998
vn -0.011998 -0.999856 -0.011998
vn -0.011998 -0.999856 -0.011998
vn -0.011998 -0.999856 -0.011998
vn -0.999856 -0.011998 -0.011998
vn -0.999856 -0.011998 -0.011998
vn -0.999856 -0.011998 -0.011998
vn -0.999856 -0.011998 -0.011998
s off
g polySurface78
usemtl lambert3SG
f 5/1/1 3/2/2 2/3/3 6/4/4
f 2/5/5 4/6/6 7/7/7 6/8/8
f 9/9/9 10/10/10 8/11/11 11/12/12
f 2/13/13 3/2/14 1/14/15 4/15/16
f 12/16/17 13/17/18 14/18/19 15/19/20
f 15/19/21 14/18/22 16/20/23 17/21/24
f 18/22/25 19/23/26 20/24/27 21/25/28
f 21/25/29 20/24/30 22/26/31 23/27/32
f 14/18/33 13/17/34 10/10/35 9/9/36
f 16/20/37 14/18/38 9/9/39 24/28/40
f 24/28/41 9/9/42 25/29/43 26/30/44
f 26/30/45 25/29/46 27/31/47 28/32/48
f 29/33/49 30/34/50 31/35/51 32/36/52
f 32/36/53 31/35/54 33/37/55 34/38/56
f 23/27/57 22/26/58 35/39/59 36/40/60
f 36/40/61 35/39/62 30/41/63 29/33/64
f 30/42/65 35/43/66 37/44/67 31/45/68
f 31/45/69 37/44/70 38/46/71 33/47/72
f 35/48/73 22/26/74 39/49/75 40/50/76
f 40/51/77 39/49/78 17/21/79 16/20/80
f 40/51/81 16/20/82 24/28/83 41/52/84
f 41/52/85 24/28/86 26/30/87 7/53/88
f 7/53/89 26/30/90 28/32/91
f 7/54/92 28/32/93 42/55/94 5/1/95
f 6/56/96 7/54/97 5/1/98
f 8/57/99 44/58/100 43/59/101 11/60/102
f 40/61/103 11/60/104 43/59/105
f 11/60/106 40/61/107 41/62/108 7/7/109
f 11/60/110 7/7/111 4/6/112
f 8/63/113 10/10/114 13/17/115 44/64/116
f 44/64/117 13/17/118 12/16/119 45/65/120
f 44/66/121 45/65/122 19/23/123 38/67/124
f 9/9/125 11/68/126 4/69/127 25/29/128
f 25/29/129 4/15/130 1/14/131 27/31/132
f 34/38/133 33/70/134 38/71/135 46/72/136
f 18/22/137 46/72/138 38/71/139 19/23/140
f 38/46/141 43/59/142 44/58/143
f 43/59/144 38/46/145 37/44/146 35/43/147
f 35/43/148 40/61/149 43/59/150
f 42/55/151 28/32/152 27/31/153 1/14/154
f 42/55/155 1/14/156 3/2/157 5/1/158
f 20/24/159 19/23/160 45/65/161 47/73/162
f 22/26/163 20/24/164 47/73/165 39/49/166
f 47/73/167 45/65/168 12/16/169 15/19/170
f 39/49/171 47/73/172 15/19/173 17/21/174
f 46/72/175 18/22/176 21/25/177 48/74/178
f 48/74/179 21/25/180 23/27/181 36/40/182
f 32/36/183 46/72/184 48/74/185 36/40/186
f 46/72/187 32/36/188 34/38/189
f 32/36/190 36/40/191 29/33/192
f 50/75/193 51/76/194 49/77/195 52/78/196
f 53/79/197 54/80/198 55/81/199 56/82/200
f 57/83/201 58/84/202 59/85/203 60/86/204
f 55/81/205 51/87/206 50/88/207 56/82/208
f 56/82/209 50/88/210 58/89/211 57/83/212
f 56/82/213 57/83/214 60/86/215 53/79/216
f 53/79/217 52/90/218 49/91/219 54/80/220
f 60/86/221 59/92/222 52/90/223 53/79/224
f 52/78/225 59/85/226 58/84/227 50/75/228
